<?xml version="1.0" encoding="UTF-8"?>
<svg width="39px" height="40px" viewBox="0 0 39 40" version="1.1" xmlns="http://www.w3.org/2000/svg" xmlns:xlink="http://www.w3.org/1999/xlink">
    <title>B7ED5FF6-CA54-4453-A4FD-70FE9BD151C5</title>
    <g id="8.-VideokouÄ" stroke="none" stroke-width="1" fill="none" fill-rule="evenodd">
        <g id="2.-Centrum-videa-2.0---b1" transform="translate(-184.000000, -249.000000)" fill="#A2A9B0">
            <g id="Group" transform="translate(152.000000, 32.000000)">
                <g id="checkbox-select/on" transform="translate(32.000000, 217.000000)">
                    <path d="M39,0 L39,40 L8,40 C3.581722,40 0,36.418278 0,32 L0,8 C0,3.581722 3.581722,0 8,0 L39,0 Z M26,12 L14,12 C12.9456382,12 12.0818349,12.8158778 12.0054857,13.8507377 L12,14 L12,26 C12,27.0543618 12.8158778,27.9181651 13.8507377,27.9945143 L14,28 L26,28 C27.0543618,28 27.9181651,27.1841222 27.9945143,26.1492623 L28,26 L28,14 C28,12.9456382 27.1841222,12.0818349 26.1492623,12.0054857 L26,12 Z M24.1464648,16.1483594 L24.8535547,16.8554688 C25.0488086,17.0507227 25.0488086,17.3673047 24.8535547,17.5625781 L19.1035547,23.3125977 C18.9082813,23.5078516 18.5916992,23.5078516 18.3964453,23.3125781 L15.1464453,20.0625781 C14.9511914,19.8673242 14.9511914,19.5507422 15.1464453,19.3554688 L15.8535352,18.6483594 C16.0487891,18.4530859 16.3653906,18.4530859 16.5606445,18.6483594 L18.75,20.8376953 L23.4393555,16.1483594 C23.6346094,15.9531055 23.9512109,15.9531055 24.1464648,16.1483594 Z"></path>
                </g>
            </g>
        </g>
    </g>
</svg>