<?xml version="1.0" encoding="UTF-8"?>
<svg xmlns="http://www.w3.org/2000/svg" xmlns:xlink="http://www.w3.org/1999/xlink" viewBox="0 0 30 30" width="30px" height="30px">
<g id="surface60515188">
<path style=" stroke:none;fill-rule:nonzero;fill:rgb(20.392157%,59.607846%,85.882354%);fill-opacity:1;" d="M 15 3 C 8.371094 3 3 8.371094 3 15 C 3 21.628906 8.371094 27 15 27 C 21.628906 27 27 21.628906 27 15 C 27 8.371094 21.628906 3 15 3 Z M 16 21 L 14 21 L 14 14 L 16 14 Z M 15 11.5 C 14.171875 11.5 13.5 10.828125 13.5 10 C 13.5 9.171875 14.171875 8.5 15 8.5 C 15.828125 8.5 16.5 9.171875 16.5 10 C 16.5 10.828125 15.828125 11.5 15 11.5 Z M 15 11.5 "/>
</g>
</svg>
