<?xml version="1.0" encoding="utf-8"?>
<svg width="32px" height="32px" viewBox="0 0 32 32" version="1.1" xmlns="http://www.w3.org/2000/svg">
  <title>icoNeutral_default</title>
  <g id="8.-VideokouÄ" stroke="none" stroke-width="1" fill="none" fill-rule="evenodd">
    <g id="2.-Centrum-videa-2.0---b2" transform="translate(-1648.000000, -168.000000)" fill-rule="nonzero">
      <g id="icoNeutral_default" transform="translate(1648.000000, 168.000000)">
        <g id="Group-4" fill="#FFFFFF" stroke="#878D96" stroke-width="2">
          <circle id="Oval" cx="16" cy="16" r="15" style="stroke: rgb(29, 92, 255);"/>
        </g>
        <g id="info" transform="translate(13.000000, 8.000000)" fill="#878D96">
          <path d="M3,4.12903226 C4.1045625,4.12903226 5,3.20470968 5,2.06451613 C5,0.924258065 4.1045625,0 3,0 C1.8954375,0 1,0.924258065 1,2.06451613 C1,3.20470968 1.8954375,4.12903226 3,4.12903226 Z M4.5136875,12.9104194 L4.5136875,7.24206452 C4.5136875,6.39583871 3.8515,5.7076129 3.02778125,5.69651613 L1.52325,5.67741935 L1.50415625,5.67741935 C0.6818125,5.67741935 0.010375,6.3566129 0.000125,7.20380645 C-0.0101875,8.05709677 0.65540625,8.7573871 1.48603125,8.76845161 L1.50140625,12.9089677 L1.5,12.9089677 C0.671375,12.9089677 0,13.6011935 0,14.4544516 C0,15.3077097 0.671375,16 1.5,16 L4.5,16 C5.328625,16 6,15.3077097 6,14.4544516 C6,13.6060323 5.33575,12.9181613 4.5136875,12.9104194 Z" id="Shape" style="fill: rgb(29, 92, 255);"/>
        </g>
      </g>
    </g>
  </g>
</svg>